<?xml version="1.0" encoding="iso-8859-1"?>
<!-- Uploaded to: SVG Repo, www.svgrepo.com, Generator: SVG Repo Mixer Tools -->
<svg fill="#000000" height="800px" width="800px" version="1.1" id="Layer_1" xmlns="http://www.w3.org/2000/svg" xmlns:xlink="http://www.w3.org/1999/xlink" 
	 viewBox="0 0 512 512" xml:space="preserve">
<g>
	<g>
		<path d="M337.534,499.191l-54.469-305.026c-0.544-3.042-2.358-5.723-4.991-7.351L49.305,45.195c-4.314-2.67-9.904-2-13.479,1.607
			c-3.568,3.606-4.176,9.202-1.457,13.49l283.238,446.645c2.048,3.234,5.564,5.064,9.207,5.064c1.321,0,2.654-0.234,3.943-0.745
			C335.607,509.372,338.447,504.319,337.534,499.191z M78.183,88.696l184.29,114.087l43.878,245.716L78.183,88.696z"/>
	</g>
</g>
<g>
	<g>
		<path d="M402.48,50.951c-1.335-3.936-4.798-6.766-8.914-7.298L55.859,0.078c-5.138-0.606-10.017,2.383-11.697,7.266
			c-1.681,4.894,0.307,10.287,4.759,12.926l239.663,141.619c1.723,1.011,3.639,1.511,5.537,1.511c2.821,0,5.606-1.096,7.709-3.192
			l98.044-98.044C402.81,59.228,403.82,54.876,402.48,50.951z M292.399,138.824L105.642,28.472L368.798,62.43L292.399,138.824z"/>
	</g>
</g>
<g>
	<g>
		<path d="M429.145,196.964l-76.256-32.681c-5.541-2.394-11.947,0.181-14.302,5.724c-2.372,5.521,0.19,11.926,5.718,14.298
			l76.256,32.681c1.399,0.606,2.855,0.883,4.286,0.883c4.229,0,8.25-2.468,10.016-6.607
			C437.236,205.74,434.672,199.336,429.145,196.964z"/>
	</g>
</g>
<g>
	<g>
		<path d="M474.279,274.039l-119.831-76.256c-5.078-3.223-11.807-1.713-15.041,3.34c-3.23,5.075-1.735,11.809,3.339,15.043
			l119.831,76.256c1.814,1.149,3.842,1.702,5.841,1.702c3.601,0,7.124-1.787,9.204-5.043
			C480.848,284.007,479.353,277.273,474.279,274.039z"/>
	</g>
</g>
<g>
	<g>
		<path d="M388.081,274.72l-54.469-43.575c-4.691-3.755-11.559-2.979-15.309,1.702c-3.76,4.702-3,11.553,1.702,15.319l54.469,43.575
			c2.006,1.606,4.41,2.383,6.798,2.383c3.192,0,6.362-1.404,8.511-4.085C393.544,285.337,392.784,278.486,388.081,274.72z"/>
	</g>
</g>
</svg>