<?xml version="1.0" encoding="utf-8"?>

<!-- Uploaded to: SVG Repo, www.svgrepo.com, Generator: SVG Repo Mixer Tools -->
<svg fill="#000000" height="800px" width="800px" version="1.1" id="Icons" xmlns="http://www.w3.org/2000/svg" xmlns:xlink="http://www.w3.org/1999/xlink" 
	 viewBox="0 0 32 32" xml:space="preserve">
<path d="M29.4,23.9c-0.3-1.6-1.2-3-2.4-4l-1.9-1.6c-0.4-0.3-0.8-0.7-1.1-1.1V21c0,0.6-0.4,1-1,1s-1-0.4-1-1v-7.3V13v-2
	c0-5-2.6-9-6-9s-6,4-6,9v2v0.7V21c0,0.6-0.4,1-1,1s-1-0.4-1-1v-3.8c-0.3,0.4-0.7,0.8-1.1,1.1L5,19.9c-1.2,1-2.1,2.4-2.4,4L2,26.8
	c-0.1,0.3,0,0.6,0.2,0.8C2.4,27.9,2.7,28,3,28h7v1c0,0.6,0.4,1,1,1h4v-9c0-0.6,0.4-1,1-1s1,0.4,1,1v9h4c0.6,0,1-0.4,1-1v-1h7
	c0.3,0,0.6-0.1,0.8-0.4c0.2-0.2,0.3-0.5,0.2-0.8L29.4,23.9z M18,11c-0.6,0-1-0.4-1-1c0-0.6-0.4-1-1-1s-1,0.4-1,1c0,0.6-0.4,1-1,1
	s-1-0.4-1-1c0-1.7,1.3-3,3-3s3,1.3,3,3C19,10.6,18.6,11,18,11z"/>
</svg>